<svg xmlns="http://www.w3.org/2000/svg" viewBox="0 0 180 180" width="180" height="180">
  <rect width="180" height="180" rx="38" ry="38" fill="#10B981"/>
  <g transform="translate(90, 90)">
    <path d="
      M 0,-49
      C 28,-49  49,-28  49,0
      C 49,28   28,49   0,49
      C -14,49  -28,35  -35,21
      C -21,21  -7,14   0,0
      C 7,-14   21,-21  35,-21
      C 21,-35  14,-42  0,-49
      Z
    " fill="white" opacity="0.95"/>
    <path d="
      M 0,-42
      C 10.5,-28  14,-10.5  0,14
      C -7,28  -21,38.5  -28,45.5
    " fill="none" stroke="#10B981" stroke-width="3.5" stroke-linecap="round"/>
    <path d="M -3.5,-21 C 7,-17.5 17.5,-14 28,-15.75" fill="none" stroke="#10B981" stroke-width="2.1" stroke-linecap="round"/>
    <path d="M -7,-7 C 3.5,-3.5 17.5,0 28,1.75" fill="none" stroke="#10B981" stroke-width="2.1" stroke-linecap="round"/>
    <path d="M -10.5,7 C 0,8.75 10.5,12.25 21,17.5" fill="none" stroke="#10B981" stroke-width="2.1" stroke-linecap="round"/>
    <path d="
      M -28,45.5
      C -35,52.5  -38.5,59.5  -35,66.5
    " fill="none" stroke="white" stroke-width="4.2" stroke-linecap="round"/>
  </g>
</svg>
