<svg xmlns="http://www.w3.org/2000/svg" viewBox="0 0 512 512" width="512" height="512">
  <rect width="512" height="512" rx="108" ry="108" fill="#10B981"/>
  <g transform="translate(256, 256)">
    <path d="
      M 0,-140
      C 80,-140  140,-80  140,0
      C 140,80   80,140   0,140
      C -40,140  -80,100  -100,60
      C -60,60   -20,40   0,0
      C 20,-40   60,-60   100,-60
      C 60,-100  40,-120  0,-140
      Z
    " fill="white" opacity="0.95"/>
    <path d="
      M 0,-120
      C 30,-80  40,-30  0,40
      C -20,80  -60,110  -80,130
    " fill="none" stroke="#10B981" stroke-width="10" stroke-linecap="round"/>
    <path d="M -10,-60 C 20,-50 50,-40 80,-45" fill="none" stroke="#10B981" stroke-width="6" stroke-linecap="round"/>
    <path d="M -20,-20 C 10,-10 50,0 80,5" fill="none" stroke="#10B981" stroke-width="6" stroke-linecap="round"/>
    <path d="M -30,20 C 0,25 30,35 60,50" fill="none" stroke="#10B981" stroke-width="6" stroke-linecap="round"/>
    <path d="
      M -80,130
      C -100,150  -110,170  -100,190
    " fill="none" stroke="white" stroke-width="12" stroke-linecap="round"/>
  </g>
</svg>
